HIERARCHY
ROOT Hips
{
  OFFSET -187.679 86.5976 -156.378
  CHANNELS 6 Xposition Yposition Zposition Zrotation Xrotation Yrotation
  JOINT LeftUpLeg
  {
    OFFSET 8.64259 1.95398 -2.38835
    CHANNELS 3 Zrotation Xrotation Yrotation
    JOINT LeftLeg
    {
      OFFSET 43.7702 0 0
      CHANNELS 3 Zrotation Xrotation Yrotation
      JOINT LeftFoot
      {
        OFFSET 40.6238 0 0
        CHANNELS 3 Zrotation Xrotation Yrotation
        JOINT LeftToeBase
        {
          OFFSET 12.7242 0 0
          CHANNELS 3 Zrotation Xrotation Yrotation
          End Site
          {
            OFFSET 0 0 0
          }
        }
      }
    }
  }
  JOINT RightUpLeg
  {
    OFFSET -8.2249 1.95398 -2.59336
    CHANNELS 3 Zrotation Xrotation Yrotation
    JOINT RightLeg
    {
      OFFSET 43.5653 0 0
      CHANNELS 3 Zrotation Xrotation Yrotation
      JOINT RightFoot
      {
        OFFSET 40.6238 0 0
        CHANNELS 3 Zrotation Xrotation Yrotation
        JOINT RightToeBase
        {
          OFFSET 12.7242 0 0
          CHANNELS 3 Zrotation Xrotation Yrotation
          End Site
          {
            OFFSET 0 0 0
          }
        }
      }
    }
  }
  JOINT Spine
  {
    OFFSET 0.165834 0.87714 6.61349
    CHANNELS 3 Zrotation Xrotation Yrotation
    JOINT Spine1
    {
      OFFSET 7.38963 1.71661e-005 0
      CHANNELS 3 Zrotation Xrotation Yrotation
      JOINT Spine2
      {
        OFFSET 11.9445 1.14441e-005 0
        CHANNELS 3 Zrotation Xrotation Yrotation
        JOINT Spine3
        {
          OFFSET 14.7254 4.19617e-005 0
          CHANNELS 3 Zrotation Xrotation Yrotation
          JOINT Spine4
          {
            OFFSET 10.9679 0 0
            CHANNELS 3 Zrotation Xrotation Yrotation
            JOINT RightShoulder
            {
              OFFSET 2.46616 -1.6653 3.69651
              CHANNELS 3 Zrotation Xrotation Yrotation
              JOINT RightArm
              {
                OFFSET 13.0012 0 0
                CHANNELS 3 Zrotation Xrotation Yrotation
                JOINT RightForeArm
                {
                  OFFSET 28.7848 1.52588e-005 0
                  CHANNELS 3 Zrotation Xrotation Yrotation
                  JOINT RightHand
                  {
                    OFFSET 26.5688 1.52588e-005 0
                    CHANNELS 3 Zrotation Xrotation Yrotation
                    End Site
                    {
                      OFFSET 0 0 0
                    }
                  }
                }
              }
            }
            JOINT LeftShoulder
            {
              OFFSET 2.38034 -1.29275 -3.7523
              CHANNELS 3 Zrotation Xrotation Yrotation
              JOINT LeftArm
              {
                OFFSET 16.3182 6.10352e-005 0
                CHANNELS 3 Zrotation Xrotation Yrotation
                JOINT LeftForeArm
                {
                  OFFSET 27.0901 0 0
                  CHANNELS 3 Zrotation Xrotation Yrotation
                  JOINT LeftHand
                  {
                    OFFSET 24.5451 1.52588e-005 0
                    CHANNELS 3 Zrotation Xrotation Yrotation
                    End Site
                    {
                      OFFSET 0 0 0
                    }
                  }
                }
              }
            }
            JOINT Neck
            {
              OFFSET 5.0226 -0.0266342 0
              CHANNELS 3 Zrotation Xrotation Yrotation
              JOINT Head
              {
                OFFSET 6.69363 2.86102e-005 0
                CHANNELS 3 Zrotation Xrotation Yrotation
                End Site
                {
                  OFFSET 0 0 0
                }
              }
            }
          }
        }
      }
    }
  }
}
MOTION
Frames:	12
Frame Time:	0.0416667
46.977 100.174 -56.155 99.9439 26.8955 76.3828 -177.749 31.7967 84.6956 -35.3319 7.93879 1.84288 77.2717 8.84519 0.845417 15.4818 -4.31056 -2.16313 169.216 -12.3932 83.9172 -25.8241 7.19021 1.68173 73.4787 -5.01669 -0.593948 29.0571 -0.509565 1.98697 2.25951 8.36584 -89.212 10.1223 4.8615 1.15158 -1.53982 4.90748 0.936002 -24.1309 4.29037 2.56168 -4.11823 4.29037 2.56168 91.9769 -37.787 -100.376 8.8891 -26.1167 -52.9007 -18.4293 -19.7178 -22.6094 -12.1783 -0.00812523 -5.12319 -86.5762 -38.2661 81.9623 -47.151 4.84883 37.5628 2.83916 -25.6224 -16.2373 -6.0949 -0.130255 -3.2125 -5.83928 5.73718 22.5718 8.05906 3.17524 -5.33773 
59.4885 93.5084 -68.2582 98.1609 26.2931 80.06 -177.83 32.2149 86.7245 -30.0901 7.90621 1.52403 72.422 5.18707 -3.97248 17.4674 -7.01674 5.58979 165.541 -25.0878 80.581 -21.8081 5.88635 1.79169 81.1997 -7.16527 -1.07763 39.6288 1.05762 3.01407 2.18074 8.03825 -89.606 10.7908 4.52409 0.374403 -0.872404 4.53613 0.174511 -23.4632 4.20209 1.71913 -3.45057 4.2021 1.71913 90.1049 -39.4714 -103.204 14.7956 -25.9343 -47.8939 -20.9345 -26.4819 -23.79 -14.1555 -0.313726 -2.64703 -87.3781 -47.9249 82.4913 -37.2628 11.2833 27.5433 5.78336 -26.7967 -1.95203 -1.54827 -0.0416876 0.160486 -3.30919 7.62132 25.0812 6.25206 4.41162 -4.35159 
73.769 91.833 -81.2045 97.0222 30.0331 76.3393 -174.108 34.1301 79.2768 -44.4422 17.9939 -1.4545 66.3039 2.76876 -0.727953 9.35843 -8.07729 0.236627 163.131 -20.3986 74.1128 -39.6119 5.1441 -1.98328 61.4883 -1.59563 -1.09106 45.6768 1.72311 6.0069 1.76969 7.59634 -88.6681 11.6405 4.14433 2.22355 -0.0254616 4.23816 2.03878 -22.5817 3.28472 3.36659 -2.56908 3.28474 3.3666 88.8699 -43.8933 -103.999 26.8767 -29.8103 -28.048 -15.0483 -19.9674 -16.0487 -12.4503 -0.126914 -3.93867 -87.8241 -47.7867 81.8008 -30.3762 11.005 13.1685 6.62944 -39.8093 0.0128926 3.08902 0.296586 3.83622 -0.514417 7.43659 17.1281 2.80463 4.78463 -5.13997 
85.3574 91.8681 -91.6106 101.404 34.1717 72.1178 -172.829 26.6426 74.6991 -57.4441 21.6257 -1.0835 76.7318 8.85586 2.51459 6.51937 -9.0956 -0.187107 171.518 0.988367 75.227 -84.9383 -8.90714 -7.23412 56.2191 0.0634312 -0.256033 20.4049 -2.99919 4.55286 0.969562 7.87822 -88.3183 11.069 2.71028 3.08882 -0.602486 2.84355 2.96661 -23.1187 1.6574 3.75984 -3.10608 1.65741 3.75984 88.6174 -45.3965 -103.977 35.3955 -28.2176 -8.5343 -12.757 -19.198 -11.9769 -6.27001 0.0774762 -7.15115 -88.88 -47.5656 80.1353 -22.2441 14.0189 -7.92214 5.88117 -30.8697 -5.51341 -4.64131 -0.0898936 -5.54014 1.87169 4.64428 4.62621 3.90704 3.50343 -5.35285 
95.3675 98.2231 -100.311 102.029 32.4421 78.2221 -173.008 10.0328 80.8331 -46.1481 24.4705 0.837987 73.9512 7.47915 2.34173 12.2655 -6.07934 -1.36128 -179.462 24.404 87.6782 -96.704 10.5479 -5.80046 65.582 -2.72034 -2.22539 21.6644 -2.60336 4.17947 0.462794 8.00177 -89.049 10.8749 1.36101 1.74641 -0.796526 1.43655 1.68483 -23.3248 0.773346 2.07457 -3.31213 0.773353 2.07456 88.0972 -46.5722 -104.467 32.4704 -18.8418 -2.87599 -9.42728 -18.944 -0.384693 -14.8883 -0.533631 -1.09276 -88.6523 -46.8422 80.3393 -13.582 5.92494 -25.1669 9.64488 -8.27936 -20.2093 1.13265 -0.0687547 -3.34855 -5.27949 4.08321 -1.04433 5.90173 3.58947 -8.0002 
105.635 106.342 -109.833 106.652 39.421 81.0957 -175.166 -3.75295 85.7452 -35.3466 29.9417 9.01191 58.7414 -0.381229 -1.05673 13.1024 -7.48934 2.2118 -179.309 32.8649 92.118 -84.7511 15.0111 -4.48997 72.9353 -4.4515 -1.42813 21.7033 -1.91874 2.28891 -0.470555 8.40736 -90.214 10.0635 -1.0352 -0.342016 -1.60708 -1.04925 -0.296125 -24.1445 -0.884562 -0.637331 -4.13182 -0.884566 -0.637335 86.5594 -46.7142 -106.85 29.5691 -17.2808 6.89583 -11.0591 -7.5899 -0.0567275 -14.5459 -0.303776 -2.74146 -88.1665 -41.2549 79.911 -15.5834 -0.0793413 -37.744 7.72059 -11.557 -26.949 2.03845 -0.21374 -7.42819 -15.7544 3.55152 -3.49515 9.40048 3.02878 -5.05043 
115.91 108.832 -118.955 106.72 47.7866 83.1372 -172.3 -8.57801 91.108 -26.4476 30.4652 7.23175 60.7571 0.346134 -3.00015 15.1371 -8.07311 5.38665 -179.015 36.2785 93.5874 -70.4859 7.54917 -3.89491 73.6932 -4.68831 -1.54981 21.7787 -2.15498 2.99007 -0.850267 8.40295 -90.8812 10.0516 -2.0956 -1.57515 -1.61854 -2.16288 -1.48139 -24.1541 -1.52544 -2.13206 -4.14147 -1.52544 -2.13206 86.0391 -47.4831 -107.419 32.4542 -19.9242 15.7529 -10.3161 -6.40407 -2.22951 -9.55775 0.188065 -7.65254 -88.063 -35.8449 78.803 -21.1203 -4.7083 -53.0673 8.35419 -9.09166 -33.9298 -0.732596 -0.200892 -12.1501 -16.5915 1.41648 -11.8391 9.38653 1.24733 -1.05852 
126.518 105.308 -128.163 106.244 55.5474 85.4379 -171.263 -10.4942 93.8373 -22.6873 19.0111 8.10134 69.1016 3.87632 -2.73721 14.3693 -8.45368 5.40327 178.583 34.5801 95.3979 -52.0571 7.15018 -0.510195 71.3503 -4.26025 -0.582077 23.5286 -1.49426 1.97429 -1.3524 8.31819 -91.3096 10.1988 -3.29217 -2.32087 -1.46983 -3.39111 -2.17367 -24.0089 -2.4428 -3.20279 -3.99629 -2.44281 -3.20279 87.7716 -46.6553 -104.96 35.9096 -18.364 18.9085 -10.9842 -8.2611 -4.04448 -7.24769 0.12385 -7.46668 -88.0502 -32.5533 77.962 -28.5812 -11.3103 -65.7799 6.79156 -8.32524 -38.3178 2.50888 -0.417812 -11.9054 -12.901 -0.667783 -18.1415 7.07611 -0.110314 0.634216 
138.759 98.4567 -138.945 106.525 58.5759 85.1006 -164.924 -22.3802 101.002 -22.0598 21.2489 8.25431 82.4293 11.5704 1.98689 23.7474 -3.80085 4.91808 177.085 29.1138 97.0065 -34.1396 4.71229 2.59348 71.8478 -4.66393 -0.380732 27.4225 -0.352402 0.523221 -1.39229 8.13627 -91.2627 10.5681 -3.35367 -2.21948 -1.10016 -3.44809 -2.06967 -23.6421 -2.53193 -3.12466 -3.62948 -2.53192 -3.12467 88.787 -49.7546 -102.548 33.4691 -15.3325 18.1473 -12.3241 -5.55303 -3.708 -4.7131 0.0620015 -8.63985 -88.7549 -34.1443 77.1035 -31.2456 -8.8738 -69.5343 7.28918 -6.05307 -45.2349 3.56874 -0.43052 -10.9706 -10.0472 -2.82236 -21.606 6.03041 -1.64069 0.672523 
151.958 94.1872 -151.885 102.424 55.6006 87.915 -161.704 -29.0902 104.015 -23.7252 22.4066 8.12371 70.3802 6.91723 3.95405 44.5316 4.9426 5.1143 175.852 31.3323 99.2366 -41.5714 3.1591 3.9605 63.287 -0.986989 -1.1732 24.4521 -1.29539 1.89288 -0.842497 7.34081 -91.5342 12.1588 -2.39988 -2.78299 0.487394 -2.52001 -2.67474 -22.0321 -1.45302 -3.37504 -2.01945 -1.45304 -3.37505 92.9936 -47.3801 -96.5088 32.3466 -8.98028 11.0423 -14.2748 -2.56599 0.15121 -1.66646 -0.0110954 -7.08385 -90.4888 -40.7084 75.9297 -25.6408 3.67489 -47.2057 8.6819 -7.15 -53.1855 0.734202 -0.224274 -9.77556 -8.30647 -2.85245 -11.2048 1.03369 -2.07194 1.12099 
162.16 91.3102 -162.676 106.179 49.9133 85.4737 -165.726 -11.7105 102.377 -67.7888 23.954 9.16841 58.1113 -0.27063 0.0376392 15.0673 -5.50595 0.0235192 173.552 29.3113 102.715 -61.2574 -0.728936 3.22911 72.2176 -4.33848 -3.35655 20.9228 -2.26093 2.83583 -0.268533 7.7364 -91.6746 11.3714 -1.31516 -3.20304 -0.302634 -1.45477 -3.14214 -22.8067 -0.292383 -3.44991 -2.79406 -0.292368 -3.44992 87.8262 -48.6484 -104.304 24.2137 -17.5989 -2.55085 -11.7611 -2.83311 -0.0975107 -4.90887 0.131086 -9.11445 -91.222 -44.907 75.8709 -23.9893 16.5342 -24.8447 12.3811 -5.61227 -37.7076 -4.46861 -0.0647291 -5.39157 -4.7018 1.70876 2.57555 5.007 1.58709 2.21143 
170.302 94.2994 -171.013 105.05 50.679 83.2286 -175.422 18.7847 98.8984 -99.1275 25.5647 9.82666 62.6521 2.37605 4.44439 7.53695 -5.75845 -5.40357 174.105 19.9167 99.7083 -58.3876 -0.0719308 2.57416 77.6349 -6.5633 -3.84837 22.0696 -1.8913 2.42539 0.369529 7.78857 -91.2822 11.3017 0.137741 -2.56131 -0.371763 0.0248844 -2.56489 -22.8891 0.900979 -2.40168 -2.87645 0.900996 -2.40167 90.4528 -44.6891 -101.198 22.8133 -10.3502 -17.1329 -15.4647 -8.64222 -7.85565 -11.4696 0.180836 -7.27209 -92.0961 -47.7154 75.2561 -26.2017 14.8181 -10.4562 7.89436 -15.1972 -10.421 5.83315 0.294045 1.58563 -6.0078 2.67729 10.2917 5.56245 1.98682 3.12469 
